<svg width="222" height="50" viewBox="0 0 222 50" fill="none" xmlns="http://www.w3.org/2000/svg">
<path d="M45.6 10.6V39H51.36V21.04L57.96 33.08H62.2L68.8 21.04V39H74.56V10.6H69.16L60.16 27L51.2 10.6H45.6ZM80.5406 10.6V39H91.0606C96.2206 39 101.421 36.68 101.421 30.92C101.421 27.72 99.8606 25.12 96.8606 23.96C99.1406 22.72 100.221 20.52 100.221 17.96C100.221 12.52 95.5006 10.6 90.8606 10.6H80.5406ZM86.3006 34.08V26.64H90.7806C93.2606 26.64 95.4606 27.56 95.4606 30.36C95.4606 33.16 93.2606 34.08 90.7806 34.08H86.3006ZM86.3006 22.04V15.52H90.2206C92.4206 15.52 94.3006 16.32 94.3006 18.8C94.3006 21.24 92.3806 22.04 90.2206 22.04H86.3006ZM104.013 15.88H112.013V39H117.973V15.88H125.973V10.6H104.013V15.88ZM125.981 28.44C125.981 34.8 130.661 39.6 136.941 39.6C143.421 39.6 148.061 34.72 148.061 28.4C148.061 22 143.381 17.28 137.101 17.28C130.701 17.28 125.981 22.16 125.981 28.44ZM137.021 22.32C140.421 22.32 142.341 25.32 142.341 28.44C142.341 31.6 140.341 34.56 137.021 34.56C133.661 34.56 131.701 31.52 131.701 28.44C131.701 25.28 133.701 22.32 137.021 22.32ZM152.542 9.16V39H158.022V28.48L166.302 39H173.382L163.622 27.24L172.422 17.88H165.862L158.022 26.48V9.16H152.542ZM174.651 28.4C174.651 34.8 179.091 39.6 185.451 39.6C189.411 39.6 193.531 37.64 195.051 33.84L190.051 32.24C189.011 33.92 187.491 34.88 185.491 34.88C182.451 34.88 180.771 32.64 180.331 29.84H195.491V28.44C195.491 22.04 191.611 17.28 185.171 17.28C178.851 17.28 174.651 22.4 174.651 28.4ZM185.171 21.6C187.851 21.6 189.371 23.6 189.731 26.08H180.411C180.891 23.6 182.491 21.6 185.171 21.6ZM199.767 17.88V39H205.367V26.88C205.367 24.28 207.087 22.32 209.687 22.32C212.447 22.32 213.447 24.6 213.447 27.04V39H219.047V26.32C219.047 21.4 216.527 17.28 211.327 17.28C208.767 17.28 206.407 18.36 205.087 20.6L204.927 17.88H199.767Z" fill="#F7F7F7"/>
<path d="M36.7688 15.0026C40.0405 22.9896 37.0409 33.9758 30.046 39.5346C23.0511 45.0934 14.7348 43.0998 11.4631 35.1128C8.19144 27.1258 11.191 16.1396 18.1859 10.5808C25.1808 5.022 33.4972 7.01558 36.7688 15.0026Z" fill="#434343" stroke="#434343" stroke-width="0.2"/>
<path d="M39.1656 16.4338C42.2543 23.9742 39.4227 34.347 32.8179 39.5958C26.213 44.8446 18.3612 42.9618 15.2725 35.4213C12.1838 27.8809 15.0154 17.5081 21.6202 12.2593C28.2251 7.01048 36.0769 8.89333 39.1656 16.4338Z" fill="white" stroke="#434343" stroke-width="0.2"/>
<path d="M38.1225 17.587C40.9798 24.5623 38.5152 34.0161 32.6179 38.7027C26.7205 43.3892 19.6235 41.534 16.7662 34.5586C13.909 27.5833 16.3736 18.1295 22.2709 13.4429C28.1682 8.7564 35.2653 10.6117 38.1225 17.587Z" stroke="#434343" stroke-width="0.2"/>
<path d="M36.3212 19.345C38.6952 25.1405 36.6798 32.9679 31.8218 36.8284C26.9638 40.689 21.1005 39.1228 18.7266 33.3273C16.3526 27.5318 18.3681 19.7044 23.226 15.8439C28.084 11.9833 33.9473 13.5495 36.3212 19.345Z" stroke="#434343" stroke-width="0.2"/>
<path d="M28.4903 21.7024L28.4903 21.4746L29.2211 21.1612L29.2211 21.389L28.4903 21.7024Z" fill="#434343" stroke="#434343" stroke-width="0.2"/>
<path d="M27.8107 22.8508L27.8107 22.6231L29.9132 21.7212L29.9132 21.949L27.8107 22.8508Z" fill="#434343" stroke="#434343" stroke-width="0.2"/>
<path d="M24.6075 27.218L24.6075 26.9903L24.881 26.873L24.881 27.1007L24.6075 27.218Z" fill="#434343" stroke="#434343" stroke-width="0.2"/>
<path d="M25.5216 26.8274L25.5216 26.5996L25.7951 26.4823L25.7951 26.7101L25.5216 26.8274Z" fill="#434343" stroke="#434343" stroke-width="0.2"/>
<path d="M26.4357 26.429L26.4357 26.2012L26.7091 26.0839L26.7091 26.3117L26.4357 26.429Z" fill="#434343" stroke="#434343" stroke-width="0.2"/>
<path d="M27.3497 26.0383L27.3497 25.8106L27.6232 25.6933L27.6232 25.921L27.3497 26.0383Z" fill="#434343" stroke="#434343" stroke-width="0.2"/>
<path d="M28.2638 25.6477L28.2638 25.42L28.5372 25.3027L28.5372 25.5304L28.2638 25.6477Z" fill="#434343" stroke="#434343" stroke-width="0.2"/>
<path d="M29.1778 25.2571L29.1778 25.0293L29.4513 24.912L29.4513 25.1398L29.1778 25.2571Z" fill="#434343" stroke="#434343" stroke-width="0.2"/>
<path d="M30.0919 24.8586L30.0919 24.6309L30.3654 24.5136L30.3654 24.7413L30.0919 24.8586Z" fill="#434343" stroke="#434343" stroke-width="0.2"/>
<path d="M31.006 24.468L31.006 24.2403L31.2794 24.123L31.2794 24.3507L31.006 24.468Z" fill="#434343" stroke="#434343" stroke-width="0.2"/>
<path d="M31.92 24.0774L31.92 23.8496L32.1935 23.7323L32.1935 23.9601L31.92 24.0774Z" fill="#434343" stroke="#434343" stroke-width="0.2"/>
<path d="M32.8341 23.6868L32.8341 23.459L33.1076 23.3417L33.1076 23.5695L32.8341 23.6868Z" fill="#434343" stroke="#434343" stroke-width="0.2"/>
<path d="M26.6622 29.3274L26.6622 29.0996L26.9357 28.9823L26.9357 29.2101L26.6622 29.3274Z" fill="#434343" stroke="#434343" stroke-width="0.2"/>
<path d="M29.7776 27.5633L29.6857 27.6027L29.6857 27.7027L29.6857 28.5583L29.6857 28.6583L29.7776 28.6188L30.9208 28.1285L31.0127 28.0891L31.0127 27.9891L31.0127 27.1335L31.0127 27.0335L30.9208 27.073L29.7776 27.5633ZM31.2861 27.8718L31.2861 27.9718L31.378 27.9323L32.5212 27.442L32.6131 27.4026L32.6131 27.3026L32.6131 26.447L32.6131 26.347L32.5212 26.3865L31.378 26.8768L31.2861 26.9162L31.2861 27.0162L31.2861 27.8718ZM32.5212 26.1587L32.6131 26.1193L32.6131 26.0193L32.6131 25.1638L32.6131 25.0638L32.5212 25.1032L31.378 25.5935L31.2861 25.633L31.2861 25.733L31.2861 26.5885L31.2861 26.6885L31.378 26.6491L32.5212 26.1587ZM31.0127 25.8503L31.0127 25.7503L30.9208 25.7897L29.7776 26.2801L29.6857 26.3195L29.6857 26.4195L29.6857 27.275L29.6857 27.375L29.7776 27.3356L30.9208 26.8452L31.0127 26.8058L31.0127 26.7058L31.0127 25.8503ZM29.4122 28.8894L29.4122 26.3229C29.4122 26.2866 29.4244 26.2561 29.4431 26.2305C29.4631 26.2032 29.4975 26.1724 29.5489 26.1504L32.7498 24.7774C32.8013 24.7553 32.8357 24.7565 32.8557 24.7666C32.8744 24.7761 32.8866 24.7961 32.8866 24.8326L32.8866 27.3991C32.8866 27.4356 32.8744 27.4661 32.8557 27.4916C32.8357 27.5189 32.8013 27.5496 32.7498 27.5717L29.5489 28.9447C29.4975 28.9668 29.4631 28.9655 29.4431 28.9554C29.4244 28.9459 29.4122 28.9259 29.4122 28.8894Z" fill="#434343" stroke="#434343" stroke-width="0.2"/>
<path d="M34.7116 28.1149L34.7116 28.2149L34.8035 28.1754L35.6262 27.8226L35.6262 28.0503L34.5749 28.5013L23.1432 33.4049L22.0919 33.8558L22.0919 33.6281L22.9145 33.2752L23.0064 33.2358L23.0064 33.1358L23.0064 32.4941C23.0064 32.4577 23.0186 32.4272 23.0373 32.4017C23.0573 32.3744 23.0917 32.3437 23.1432 32.3216L23.6004 32.1255L23.6923 32.0861L23.6923 31.9861L23.6923 26.853L23.6923 26.753L23.6004 26.7924L22.9145 27.0866C22.863 27.1087 22.8287 27.1075 22.8087 27.0974C22.79 27.0879 22.7778 27.0678 22.7778 27.0314L22.7778 26.24C22.7778 26.2055 22.7877 26.1735 22.8231 26.1363L22.9602 25.9919L23.0064 25.9432L23.0064 25.9346L28.7713 19.4544L28.7717 19.454C28.8054 19.4159 28.8341 19.3951 28.859 19.3844C28.884 19.3737 28.9127 19.3699 28.9464 19.3791L28.947 19.3792L30.8675 19.8815L31.0086 19.9184L31.0086 19.7365L31.0086 18.7954C31.0086 18.759 31.0208 18.7285 31.0395 18.7029C31.0595 18.6757 31.0939 18.645 31.1454 18.6229L32.9745 17.8383C33.0259 17.8162 33.0603 17.8174 33.0803 17.8276C33.099 17.837 33.1112 17.8571 33.1112 17.8935L33.1112 20.4387L33.1112 20.4937L33.1539 20.5049L34.8915 20.9572L34.8915 20.9573L34.895 20.958C34.9304 20.9649 34.9403 20.9884 34.9403 21.0229L34.9403 21.8143C34.9403 21.8508 34.9281 21.8812 34.9094 21.9068C34.8894 21.934 34.855 21.9647 34.8035 21.9868L34.1176 22.281L34.0257 22.3205L34.0257 22.4205L34.0257 27.5536L34.0257 27.6536L34.1176 27.6141L34.5749 27.418C34.6264 27.3959 34.6608 27.3971 34.6807 27.4072C34.6995 27.4167 34.7116 27.4368 34.7116 27.4732L34.7116 28.1149ZM32.8377 18.2247L32.8377 18.1247L32.7458 18.1641L31.374 18.7526L31.2821 18.792L31.2821 18.892L31.2821 19.1059L31.2821 19.2059L31.374 19.1665L32.7458 18.578L32.8377 18.5386L32.8377 18.4386L32.8377 18.2247ZM31.374 19.3942L31.2821 19.4336L31.2821 19.5336L31.2821 19.94L31.2821 19.9945L31.3242 20.006L32.696 20.38L32.8377 20.4186L32.8377 20.2352L32.8377 18.8664L32.8377 18.7664L32.7458 18.8058L31.374 19.3942ZM23.1432 26.133L23.0513 26.1724L23.0513 26.2724L23.0513 26.7004L23.0513 26.8004L23.1432 26.761L23.8291 26.4668L33.889 22.1516L34.5749 21.8574L34.6668 21.8179L34.6668 21.7179L34.6668 21.2474L34.6668 21.1927L34.6244 21.1813L28.9086 19.655L28.8591 19.6418L28.8095 19.6974L23.6424 25.5068L23.3774 25.8048L23.6919 25.6699L32.1966 22.0218L32.1966 22.2495L23.1432 26.133ZM24.0577 26.5962L23.9658 26.6357L23.9658 26.7357L23.9658 31.8687L23.9658 31.9687L24.0577 31.9293L24.9722 31.537L25.0641 31.4976L25.0641 31.3976L25.0641 28.4033L25.0641 28.3033L24.9722 28.3427L24.6069 28.4995L24.6069 28.2717L25.2009 28.0169L27.7159 26.9381L28.3099 26.6833L28.3099 26.9111L27.9445 27.0678L27.8526 27.1072L27.8526 27.2072L27.8526 30.2015L27.8526 30.3015L27.9445 30.2621L33.6604 27.8103L33.7523 27.7709L33.7523 27.6709L33.7523 22.5378L33.7523 22.4378L33.6604 22.4772L24.0577 26.5962ZM25.4295 28.1466L25.3376 28.186L25.3376 28.286L25.3376 31.2803L25.3376 31.3803L25.4295 31.3409L27.4872 30.4582L27.5791 30.4188L27.5791 30.3188L27.5791 27.3245L27.5791 27.2245L27.4872 27.2639L25.4295 28.1466ZM23.2799 33.0185L23.2799 33.1185L23.3718 33.0791L34.3463 28.3716L34.4382 28.3322L34.4382 28.2322L34.4382 27.8044L34.4382 27.7044L34.3463 27.7438L33.889 27.94L27.7159 30.5879L25.2009 31.6667L23.8291 32.2552L23.3718 32.4513L23.2799 32.4907L23.2799 32.5907L23.2799 33.0185Z" fill="#434343" stroke="#434343" stroke-width="0.2"/>
</svg>
