<svg width="215" height="40" viewBox="0 0 215 40" fill="none" xmlns="http://www.w3.org/2000/svg">
<path d="M188.371 21.8299C187.199 20.9992 185.889 20.3969 184.65 19.6685C183.827 19.2409 183.041 18.7363 182.302 18.1606C181.122 17.1252 181.359 15.0858 182.605 14.196C184.373 12.9322 187.313 13.6488 187.617 16.2197C187.618 16.2465 187.63 16.2715 187.648 16.2898C187.667 16.3081 187.691 16.3182 187.716 16.3181H190.387C190.402 16.3182 190.417 16.3149 190.431 16.3084C190.444 16.302 190.457 16.2925 190.467 16.2806C190.477 16.2687 190.485 16.2547 190.489 16.2394C190.494 16.2242 190.496 16.2081 190.494 16.1921C190.35 14.4165 189.717 12.9401 188.541 11.9952C187.453 11.103 186.12 10.6161 184.747 10.6094C177.671 10.6094 177.028 18.5819 180.833 21.0977C181.277 21.389 185.009 23.3851 186.329 24.2473C187.65 25.1095 188.064 26.7079 187.491 27.9717C186.969 29.1292 185.616 29.9048 184.262 29.83C182.783 29.7473 181.636 28.8891 181.233 27.5544C181.168 27.2588 181.133 26.9565 181.129 26.6528C181.127 26.6239 181.115 26.5969 181.095 26.5771C181.076 26.5574 181.049 26.5465 181.022 26.5465H178.115C178.086 26.5475 178.059 26.5604 178.039 26.5825C178.019 26.6045 178.008 26.634 178.008 26.6646C178.008 28.9009 178.533 30.1371 179.946 31.267C181.184 32.2672 182.7 32.7992 184.255 32.7789C188.208 32.7789 190.272 30.393 190.679 27.9205C191.086 25.4481 190.416 23.2709 188.371 21.8299Z" fill="#F7F7F7"/>
<path d="M62.4415 10.9922H59.76C59.7375 10.9914 59.7153 10.9988 59.6972 11.0131C59.6791 11.0274 59.666 11.0478 59.6602 11.071L57.2709 19.4215C57.2649 19.4447 57.2519 19.4653 57.2339 19.4799C57.2158 19.4946 57.1938 19.5025 57.1711 19.5025C57.1484 19.5025 57.1263 19.4946 57.1083 19.4799C57.0902 19.4653 57.0772 19.4447 57.0712 19.4215L54.6857 11.071C54.6786 11.0478 54.6647 11.0277 54.646 11.0135C54.6274 10.9993 54.605 10.9919 54.5821 10.9922H50.1698C50.1419 10.9922 50.1152 11.0037 50.0952 11.0243C50.0752 11.0448 50.0635 11.0729 50.0625 11.1025V32.4373C50.0625 32.4676 50.0738 32.4966 50.0939 32.518C50.114 32.5394 50.1413 32.5515 50.1698 32.5515H53.0768C53.0907 32.5515 53.1045 32.5485 53.1173 32.5427C53.1301 32.5369 53.1417 32.5285 53.1514 32.5178C53.161 32.5072 53.1686 32.4945 53.1736 32.4807C53.1785 32.4669 53.1809 32.4521 53.1804 32.4373V16.2285C53.1823 16.2027 53.1925 16.1784 53.2091 16.1595C53.2258 16.1406 53.248 16.1284 53.2721 16.1247C53.2962 16.121 53.3207 16.1262 53.3417 16.1393C53.3627 16.1525 53.3788 16.1728 53.3875 16.197L55.7915 24.6026L55.958 25.1892C55.9651 25.2124 55.9789 25.2325 55.9976 25.2467C56.0162 25.2609 56.0386 25.2683 56.0615 25.268H58.2806C58.3035 25.2683 58.3259 25.2609 58.3446 25.2467C58.3632 25.2325 58.3771 25.2124 58.3842 25.1892L58.5506 24.6026L60.9547 16.197C60.9633 16.1728 60.9795 16.1525 61.0005 16.1393C61.0214 16.1262 61.046 16.121 61.07 16.1247C61.0941 16.1284 61.1163 16.1406 61.133 16.1595C61.1497 16.1784 61.1598 16.2027 61.1618 16.2285V32.4373C61.1613 32.4521 61.1636 32.4669 61.1686 32.4807C61.1736 32.4945 61.1811 32.5072 61.1908 32.5178C61.2004 32.5285 61.212 32.5369 61.2248 32.5427C61.2376 32.5485 61.2514 32.5515 61.2653 32.5515H64.1724C64.2008 32.5515 64.2281 32.5394 64.2482 32.518C64.2683 32.4966 64.2796 32.4676 64.2796 32.4373V11.1025C64.2787 11.0729 64.267 11.0448 64.2469 11.0243C64.2269 11.0037 64.2002 10.9922 64.1724 10.9922H62.4415Z" fill="#F7F7F7"/>
<path d="M143.952 10.9922C143.929 10.9927 143.908 11.0005 143.89 11.0146C143.872 11.0287 143.859 11.0484 143.852 11.0709L141.466 19.4214C141.459 19.4441 141.445 19.4638 141.427 19.4778C141.409 19.4918 141.387 19.4993 141.365 19.4993C141.342 19.4993 141.32 19.4918 141.302 19.4778C141.284 19.4638 141.27 19.4441 141.263 19.4214L138.877 11.0709C138.871 11.0481 138.858 11.028 138.84 11.0138C138.822 10.9996 138.8 10.992 138.777 10.9922H134.365C134.337 10.9922 134.311 11.0037 134.29 11.0242C134.27 11.0448 134.259 11.0728 134.258 11.1024V32.4373C134.258 32.4675 134.269 32.4966 134.289 32.518C134.309 32.5394 134.337 32.5514 134.365 32.5514H137.272C137.3 32.5504 137.326 32.5379 137.346 32.5166C137.365 32.4953 137.376 32.4669 137.376 32.4373V16.2284C137.378 16.2026 137.388 16.1783 137.404 16.1594C137.421 16.1406 137.443 16.1283 137.467 16.1246C137.491 16.121 137.516 16.1261 137.537 16.1393C137.558 16.1524 137.574 16.1728 137.583 16.197L139.987 24.6025L140.153 25.1892C140.16 25.2117 140.173 25.2314 140.191 25.2455C140.209 25.2596 140.231 25.2674 140.253 25.2679H142.472C142.495 25.2687 142.517 25.2614 142.535 25.2471C142.553 25.2328 142.566 25.2124 142.572 25.1892L142.742 24.6025L145.143 16.197C145.151 16.1728 145.167 16.1524 145.188 16.1393C145.209 16.1261 145.234 16.121 145.258 16.1246C145.282 16.1283 145.304 16.1406 145.321 16.1594C145.338 16.1783 145.348 16.2026 145.35 16.2284V32.4373C145.35 32.4675 145.361 32.4966 145.381 32.518C145.401 32.5394 145.429 32.5514 145.457 32.5514H148.364C148.392 32.5504 148.418 32.5379 148.437 32.5166C148.457 32.4953 148.468 32.4669 148.468 32.4373V11.1024C148.467 11.0735 148.455 11.046 148.436 11.0256C148.417 11.0051 148.391 10.9932 148.364 10.9922H143.952Z" fill="#F7F7F7"/>
<path d="M106.542 10.9922H92.8573C92.8294 10.9922 92.8027 11.0037 92.7827 11.0242C92.7627 11.0448 92.751 11.0728 92.75 11.1024V13.7717C92.751 13.8013 92.7627 13.8294 92.7827 13.8499C92.8027 13.8705 92.8294 13.882 92.8573 13.882H98.1572V32.4372C98.1572 32.4522 98.16 32.4671 98.1654 32.4809C98.1708 32.4948 98.1787 32.5074 98.1887 32.518C98.1986 32.5286 98.2105 32.537 98.2235 32.5427C98.2365 32.5485 98.2504 32.5514 98.2645 32.5514H101.172C101.199 32.5504 101.226 32.5379 101.245 32.5166C101.264 32.4953 101.275 32.4669 101.275 32.4372V13.882H106.542C106.57 13.882 106.596 13.8705 106.616 13.8499C106.636 13.8294 106.648 13.8013 106.649 13.7717V11.1024C106.648 11.0728 106.636 11.0448 106.616 11.0242C106.596 11.0037 106.57 10.9922 106.542 10.9922Z" fill="#F7F7F7"/>
<path d="M123.664 32.552H126.305C126.321 32.5521 126.337 32.5481 126.352 32.5405C126.366 32.5328 126.379 32.5217 126.389 32.5079C126.398 32.4941 126.405 32.4781 126.408 32.4611C126.411 32.4442 126.41 32.4267 126.405 32.4102L120.968 11.0046C120.962 10.9806 120.948 10.9596 120.929 10.9447C120.911 10.9298 120.888 10.9218 120.865 10.9219H117.07C117.047 10.9218 117.024 10.9298 117.005 10.9447C116.986 10.9596 116.973 10.9806 116.966 11.0046L111.511 32.4102C111.507 32.427 111.507 32.4445 111.51 32.4614C111.514 32.4784 111.52 32.4942 111.53 32.5079C111.54 32.5215 111.553 32.5326 111.568 32.5402C111.582 32.5479 111.598 32.5519 111.615 32.552H114.255C114.279 32.551 114.301 32.542 114.319 32.5264C114.337 32.5108 114.35 32.4894 114.355 32.4654L115.942 26.2448C115.948 26.2212 115.96 26.2003 115.979 26.1854C115.997 26.1704 116.019 26.1623 116.042 26.1622H121.878C121.901 26.1629 121.923 26.1713 121.941 26.1861C121.959 26.201 121.972 26.2216 121.978 26.2448L123.557 32.4614C123.562 32.4878 123.575 32.5116 123.595 32.5282C123.614 32.5449 123.639 32.5534 123.664 32.552V32.552ZM116.733 23.1306L118.856 14.7959C118.863 14.7732 118.877 14.7535 118.895 14.7395C118.914 14.7255 118.935 14.718 118.958 14.718C118.98 14.718 119.002 14.7255 119.021 14.7395C119.039 14.7535 119.053 14.7732 119.06 14.7959L121.183 23.1306C121.187 23.1471 121.188 23.1646 121.185 23.1815C121.182 23.1985 121.176 23.2145 121.166 23.2283C121.157 23.2421 121.144 23.2532 121.129 23.2609C121.115 23.2685 121.099 23.2725 121.083 23.2724H116.837C116.821 23.2723 116.805 23.2683 116.79 23.2606C116.775 23.253 116.763 23.2419 116.753 23.2283C116.743 23.2146 116.736 23.1988 116.732 23.1818C116.729 23.1649 116.729 23.1474 116.733 23.1306Z" fill="#F7F7F7"/>
<path d="M168.68 32.552H171.317C171.333 32.5519 171.349 32.5479 171.364 32.5403C171.378 32.5327 171.391 32.5216 171.401 32.5079C171.411 32.4943 171.418 32.4784 171.421 32.4615C171.425 32.4446 171.425 32.4271 171.421 32.4103L165.965 11.0046C165.959 10.9804 165.946 10.9589 165.927 10.9439C165.908 10.9289 165.885 10.9211 165.862 10.9219H162.082C162.058 10.9218 162.036 10.9298 162.017 10.9448C161.998 10.9597 161.985 10.9807 161.978 11.0046L156.527 32.4103C156.523 32.4268 156.522 32.4439 156.526 32.4606C156.529 32.4772 156.535 32.4929 156.545 32.5064C156.554 32.52 156.567 32.5312 156.581 32.539C156.595 32.5469 156.611 32.5514 156.626 32.552H159.267C159.291 32.5517 159.313 32.543 159.331 32.5273C159.349 32.5115 159.362 32.4897 159.367 32.4654L160.954 26.2449C160.96 26.221 160.974 26.2 160.993 26.185C161.011 26.1701 161.034 26.1621 161.057 26.1622H166.89C166.913 26.1623 166.935 26.1705 166.953 26.1854C166.971 26.2004 166.984 26.2213 166.99 26.2449L168.576 32.4654C168.582 32.4901 168.595 32.5119 168.614 32.5276C168.633 32.5433 168.656 32.5519 168.68 32.552ZM161.749 23.1307L163.872 14.796C163.879 14.7733 163.893 14.7535 163.911 14.7396C163.929 14.7256 163.951 14.718 163.974 14.718C163.996 14.718 164.018 14.7256 164.036 14.7396C164.055 14.7535 164.068 14.7733 164.075 14.796L166.198 23.1307C166.202 23.1475 166.202 23.165 166.199 23.1819C166.196 23.1988 166.189 23.2147 166.179 23.2283C166.169 23.242 166.156 23.2531 166.142 23.2607C166.127 23.2683 166.111 23.2723 166.095 23.2724H161.849C161.833 23.2725 161.817 23.2686 161.802 23.2609C161.788 23.2533 161.775 23.2421 161.765 23.2283C161.756 23.2145 161.749 23.1985 161.746 23.1816C161.743 23.1646 161.744 23.1472 161.749 23.1307Z" fill="#F7F7F7"/>
<path d="M76.0164 29.3979V22.7757C76.0158 22.7611 76.0182 22.7465 76.0232 22.7329C76.0282 22.7193 76.0358 22.7069 76.0455 22.6966C76.0553 22.6862 76.0669 22.6781 76.0797 22.6728C76.0925 22.6674 76.1062 22.665 76.1199 22.6655H83.8424C83.8702 22.6645 83.8966 22.652 83.9159 22.6307C83.9352 22.6094 83.946 22.5809 83.946 22.5513V19.886C83.946 19.8564 83.9352 19.8279 83.9159 19.8066C83.8966 19.7853 83.8702 19.7728 83.8424 19.7718H76.1199C76.0925 19.7718 76.0661 19.7602 76.0467 19.7395C76.0273 19.7188 76.0164 19.6908 76.0164 19.6615V13.9962C76.0159 13.9813 76.0182 13.9666 76.0232 13.9528C76.0281 13.9389 76.0357 13.9263 76.0454 13.9156C76.055 13.905 76.0666 13.8965 76.0794 13.8907C76.0922 13.8849 76.106 13.882 76.1199 13.882H84.9076C84.9354 13.882 84.9622 13.8705 84.9822 13.8499C85.0022 13.8294 85.0139 13.8013 85.0149 13.7717V11.1024C85.0139 11.0728 85.0022 11.0448 84.9822 11.0242C84.9622 11.0037 84.9354 10.9922 84.9076 10.9922H73.0021C72.9746 10.9922 72.9483 11.0038 72.9288 11.0245C72.9094 11.0451 72.8985 11.0732 72.8985 11.1024V32.4372C72.898 32.4521 72.9003 32.4668 72.9053 32.4806C72.9103 32.4945 72.9178 32.5071 72.9275 32.5178C72.9372 32.5284 72.9487 32.5369 72.9616 32.5427C72.9744 32.5485 72.9881 32.5514 73.0021 32.5514H85.2849C85.3133 32.5514 85.3406 32.5394 85.3607 32.518C85.3808 32.4966 85.3921 32.4675 85.3921 32.4372V29.6223C85.3921 29.592 85.3808 29.5629 85.3607 29.5415C85.3406 29.5201 85.3133 29.5081 85.2849 29.5081H76.1199C76.1062 29.5086 76.0925 29.5062 76.0797 29.5008C76.0669 29.4955 76.0553 29.4874 76.0455 29.477C76.0358 29.4667 76.0282 29.4543 76.0232 29.4407C76.0182 29.4271 76.0158 29.4125 76.0164 29.3979V29.3979Z" fill="#F7F7F7"/>
<path d="M214.877 32.3585L204.839 21.3151C204.829 21.3048 204.822 21.2926 204.816 21.2791C204.811 21.2656 204.808 21.251 204.808 21.2364C204.808 21.2217 204.811 21.2072 204.816 21.1937C204.822 21.1801 204.829 21.1679 204.839 21.1576L213.867 11.2009C213.882 11.1854 213.892 11.1657 213.896 11.1441C213.9 11.1225 213.898 11.1 213.89 11.0797C213.882 11.0594 213.869 11.042 213.852 11.0299C213.834 11.0178 213.814 11.0115 213.793 11.0119H210.098C210.084 11.0119 210.07 11.015 210.056 11.0211C210.043 11.0272 210.031 11.0361 210.021 11.0473L202.357 19.5159C202.343 19.5324 202.324 19.5438 202.303 19.5487C202.282 19.5536 202.26 19.5516 202.24 19.5432C202.22 19.5347 202.203 19.52 202.191 19.5011C202.179 19.4823 202.173 19.46 202.173 19.4371V11.1024C202.173 11.0732 202.162 11.0451 202.142 11.0245C202.123 11.0038 202.096 10.9922 202.069 10.9922H199.162C199.134 10.9922 199.107 11.0037 199.087 11.0242C199.067 11.0448 199.056 11.0728 199.055 11.1024V32.4372C199.055 32.4675 199.066 32.4966 199.086 32.518C199.106 32.5394 199.133 32.5514 199.162 32.5514H202.069C202.083 32.5514 202.097 32.5485 202.109 32.5427C202.122 32.5369 202.134 32.5284 202.144 32.5178C202.153 32.5071 202.161 32.4945 202.166 32.4806C202.171 32.4668 202.173 32.4521 202.173 32.4372V23.0474C202.173 23.0254 202.18 23.0041 202.192 22.986C202.204 22.9679 202.22 22.9539 202.239 22.9456C202.258 22.9373 202.279 22.935 202.3 22.9391C202.32 22.9432 202.339 22.9535 202.354 22.9687L211.034 32.516C211.054 32.5377 211.08 32.5504 211.108 32.5514H214.807C214.827 32.55 214.847 32.5424 214.863 32.5295C214.88 32.5166 214.892 32.499 214.9 32.4788C214.907 32.4585 214.909 32.4364 214.905 32.4151C214.901 32.3938 214.891 32.3742 214.877 32.3585V32.3585Z" fill="#F7F7F7"/>
<path d="M36.575 1.21875L22.0469 12.8175L24.745 5.97452L36.575 1.21875Z" fill="#F7F7F7" stroke="#F7F7F7" stroke-width="0.712817" stroke-linecap="round" stroke-linejoin="round"/>
<path d="M2.32812 1.21875L17.3751 12.8175L14.6931 5.92993L2.32812 1.21875Z" fill="#F7F7F7" stroke="#F7F7F7" stroke-width="0.712817" stroke-linecap="round" stroke-linejoin="round"/>
<path d="M31.1947 28.2812L27.2344 34.6663L35.7086 37.1184L38.1305 28.4222L31.1947 28.2812Z" fill="#F7F7F7" stroke="#F7F7F7" stroke-width="0.712817" stroke-linecap="round" stroke-linejoin="round"/>
<path d="M0.773438 28.4222L3.18381 37.1184L11.6695 34.6663L7.71856 28.2812L0.773438 28.4222Z" fill="#F7F7F7" stroke="#F7F7F7" stroke-width="0.712817" stroke-linecap="round" stroke-linejoin="round"/>
<path d="M11.4118 17.5572L9.07812 21.2669L17.3799 21.6551L17.0991 12.2656L11.4118 17.5572Z" fill="#F7F7F7" stroke="#F7F7F7" stroke-width="0.712817" stroke-linecap="round" stroke-linejoin="round"/>
<path d="M28.015 17.6041L22.2389 12.2656L22.0469 21.6551L30.3486 21.2713L28.015 17.6041Z" fill="#F7F7F7" stroke="#F7F7F7" stroke-width="0.712817" stroke-linecap="round" stroke-linejoin="round"/>
<path d="M11.6719 34.9115L16.8605 32.3594L12.3909 28.8359L11.6719 34.9115Z" fill="#F7F7F7" stroke="#F7F7F7" stroke-width="0.712817" stroke-linecap="round" stroke-linejoin="round"/>
<path d="M22.5625 32.3594L27.2322 34.9115L26.5851 28.8359L22.5625 32.3594Z" fill="#F7F7F7" stroke="#F7F7F7" stroke-width="0.712817" stroke-linecap="round" stroke-linejoin="round"/>
<path d="M27.2322 34.7617L22.5625 32.1484L22.9342 35.6474L22.8935 37.1193L27.2322 34.7617Z" fill="#FEF9F9" stroke="#FEF9F9" stroke-width="0.712817" stroke-linecap="round" stroke-linejoin="round"/>
<path d="M11.6719 34.7617L16.4927 37.1193L16.4625 35.6474L16.8605 32.1484L11.6719 34.7617Z" fill="#FEF9F9" stroke="#FEF9F9" stroke-width="0.712817" stroke-linecap="round" stroke-linejoin="round"/>
<path d="M16.3384 26.0741L12.1875 24.7574L15.1162 23.3125L16.3384 26.0741Z" fill="#233447" stroke="#233447" stroke-width="0.712817" stroke-linecap="round" stroke-linejoin="round"/>
<path d="M22.5625 26.0741L23.7805 23.3125L26.7134 24.7574L22.5625 26.0741Z" fill="#233447" stroke="#233447" stroke-width="0.712817" stroke-linecap="round" stroke-linejoin="round"/>
<path d="M11.9783 34.9091L12.7088 28.2812L8.03906 28.4276L11.9783 34.9091Z" fill="#F7F7F7" stroke="#F7F7F7" stroke-width="0.712817" stroke-linecap="round" stroke-linejoin="round"/>
<path d="M26.7188 28.2812L27.447 34.9091L31.3885 28.4276L26.7188 28.2812Z" fill="#F7F7F7" stroke="#F7F7F7" stroke-width="0.712817" stroke-linecap="round" stroke-linejoin="round"/>
<path d="M30.3486 21.1016L22.0469 21.4977L22.8151 26.0725L24.0416 23.318L26.9951 24.7592L30.3486 21.1016Z" fill="#F7F7F7" stroke="#F7F7F7" stroke-width="0.712817" stroke-linecap="round" stroke-linejoin="round"/>
<path d="M12.4463 24.7592L15.3852 23.318L16.6117 26.0725L17.3799 21.4977L9.07812 21.1016L12.4463 24.7592Z" fill="#F7F7F7" stroke="#F7F7F7" stroke-width="0.712817" stroke-linecap="round" stroke-linejoin="round"/>
<path d="M9.07812 21.1016L12.7102 28.8341L12.5874 24.9844L9.07812 21.1016Z" fill="#F7F7F7" stroke="#F7F7F7" stroke-width="0.712817" stroke-linecap="round" stroke-linejoin="round"/>
<path d="M26.8567 24.9844L26.7188 28.8341L30.3508 21.1016L26.8567 24.9844Z" fill="#F7F7F7" stroke="#F7F7F7" stroke-width="0.712817" stroke-linecap="round" stroke-linejoin="round"/>
<path d="M17.3481 21.6562L16.3359 26.2159L17.6203 31.598L17.8925 24.5121L17.3481 21.6562Z" fill="#F7F7F7" stroke="#F7F7F7" stroke-width="0.712817" stroke-linecap="round" stroke-linejoin="round"/>
<path d="M21.8858 21.6562L21.5312 24.4965L21.702 31.598L22.569 26.2159L21.8858 21.6562Z" fill="#F7F7F7" stroke="#F7F7F7" stroke-width="0.712817" stroke-linecap="round" stroke-linejoin="round"/>
<path d="M22.5124 26.272L21.5312 31.6304L22.2444 32.1489L26.5866 28.5674L26.7199 24.9688L22.5124 26.272Z" fill="#F7F7F7" stroke="#F7F7F7" stroke-width="0.712817" stroke-linecap="round" stroke-linejoin="round"/>
<path d="M12.1875 24.9688L12.3065 28.5674L16.6609 32.1489L17.3761 31.6304L16.3921 26.272L12.1875 24.9688Z" fill="#F7F7F7" stroke="#F7F7F7" stroke-width="0.712817" stroke-linecap="round" stroke-linejoin="round"/>
<path d="M22.5723 37.2646L22.6161 35.7971L22.247 35.4504H16.6626L16.3081 35.7971L16.3372 37.2646L11.6719 34.9141L13.3014 36.3334L16.6188 38.7803H22.2908L25.6082 36.3334L27.2377 34.9141L22.5723 37.2646Z" fill="#FEF9F9" stroke="#FEF9F9" stroke-width="0.712817" stroke-linecap="round" stroke-linejoin="round"/>
<path d="M22.1677 32.1677L21.4665 31.5938H17.4173L16.7161 32.1677L16.3359 36.0123L16.6858 35.6303H22.198L22.5623 36.0123L22.1677 32.1677Z" fill="#161616" stroke="#161616" stroke-width="0.712817" stroke-linecap="round" stroke-linejoin="round"/>
<path d="M37.4051 13.7433L38.6472 7.25058L36.7848 1.21875L22.5625 12.5817L28.0333 17.5617L35.764 19.9977L37.4648 17.8486L36.7251 17.2765L37.9075 16.1134L37.0061 15.35L38.1885 14.3797L37.4051 13.7433Z" fill="#434343" stroke="#434343" stroke-width="0.712817" stroke-linecap="round" stroke-linejoin="round"/>
<path d="M0.773438 7.25058L2.0301 13.7433L1.23213 14.3797L2.41452 15.35L1.51316 16.1134L2.69556 17.2765L1.95584 17.8486L3.65662 19.9977L11.3873 17.5617L16.8581 12.5817L2.63586 1.21875L0.773438 7.25058Z" fill="#434343" stroke="#434343" stroke-width="0.712817" stroke-linecap="round" stroke-linejoin="round"/>
<path d="M35.5589 20.2079L27.8663 17.7891L30.1905 21.5667L26.7188 28.8355L31.3076 28.7717H38.1337L35.5589 20.2079Z" fill="#F7F7F7" stroke="#F7F7F7" stroke-width="0.712817" stroke-linecap="round" stroke-linejoin="round"/>
<path d="M11.506 17.7891L3.45354 20.2079L0.773438 28.7717H7.91885L12.7072 28.8355L9.0731 21.5667L11.506 17.7891Z" fill="#F7F7F7" stroke="#F7F7F7" stroke-width="0.712817" stroke-linecap="round" stroke-linejoin="round"/>
<path d="M21.9376 21.7029L22.434 12.6421L24.6396 6.1875H14.7812L16.9869 12.6421L17.4832 21.7029L17.6731 24.5597L17.6875 31.5943H21.7333L21.7477 24.5597L21.9376 21.7029Z" fill="#F7F7F7" stroke="#F7F7F7" stroke-width="0.712817" stroke-linecap="round" stroke-linejoin="round"/>
</svg>
