<svg width="199" height="41" viewBox="0 0 199 41" fill="none" xmlns="http://www.w3.org/2000/svg">
<g clip-path="url(#clip0_986_111)">
<path fill-rule="evenodd" clip-rule="evenodd" d="M38.3157 20.3933C38.3157 31.6556 29.7378 40.7866 19.1578 40.7866C8.57785 40.7866 0 31.6556 0 20.3933C0 9.13102 8.57785 0 19.1578 0C29.7401 0 38.3157 9.13102 38.3157 20.3933ZM9.45169 21.0786L9.53434 20.9402L14.5181 12.6411C14.5909 12.5196 14.7621 12.5321 14.8172 12.6641C15.6498 14.6504 16.3682 17.1207 16.0317 18.6586C15.888 19.2913 15.4943 20.1482 15.0515 20.9402C14.9944 21.0555 14.9314 21.1686 14.8645 21.2776C14.833 21.3279 14.7798 21.3572 14.7227 21.3572H9.59733C9.45954 21.3572 9.37885 21.198 9.45169 21.0786ZM31.6658 23.9343V22.6207C31.6658 22.4991 31.5556 22.4111 31.4473 22.4447L25.6192 24.2382C25.5877 24.2465 25.5601 24.2654 25.5385 24.2905C24.9143 25.0245 24.3838 25.517 24.2433 25.6475L24.2335 25.6566C23.8714 25.9835 23.4226 26.1616 22.9502 26.1616H20.8402V23.8715H22.5172C22.5605 23.8715 22.6018 23.8547 22.6333 23.8254L22.8498 23.6138C22.9423 23.5237 23.0526 23.4147 23.1844 23.2743C23.1956 23.2624 23.207 23.2503 23.2185 23.2381C23.2878 23.1646 23.3618 23.0861 23.4344 22.9999C23.521 22.9098 23.6056 22.8092 23.6843 22.7107C23.8162 22.5599 23.9422 22.4027 24.0741 22.2372C24.1686 22.1283 24.2552 22.0047 24.3398 21.881C24.4343 21.7637 24.5268 21.6317 24.6134 21.506C24.6456 21.4556 24.6799 21.4046 24.715 21.3525C24.7484 21.3029 24.7825 21.2522 24.8161 21.2001C24.8791 21.0995 24.9421 20.9927 24.9952 20.8921C25.1606 20.6197 25.3004 20.3284 25.4184 20.0372C25.4726 19.9125 25.516 19.7812 25.5581 19.6535C25.5634 19.6375 25.5687 19.6215 25.5739 19.6056C25.6212 19.4568 25.6605 19.3165 25.6901 19.1677C25.7609 18.8178 25.7767 18.47 25.7452 18.1222C25.7373 18.0132 25.7294 17.9064 25.7058 17.8058V17.7891C25.6979 17.7178 25.6822 17.6382 25.6605 17.5649C25.5897 17.2254 25.4794 16.886 25.3397 16.5529C25.2925 16.4292 25.2374 16.3035 25.1842 16.1883C25.0582 15.939 24.9264 15.6896 24.7768 15.4487C24.7467 15.3978 24.7136 15.3462 24.6805 15.2948C24.655 15.2551 24.6295 15.2155 24.6055 15.1763C24.5108 15.0208 24.4043 14.8709 24.301 14.7254C24.2776 14.6925 24.2544 14.6598 24.2315 14.6274C24.1705 14.5421 24.1038 14.4568 24.0365 14.371C23.9997 14.324 23.9627 14.2767 23.9265 14.2293C23.8241 14.0973 23.7237 13.9716 23.6214 13.8479C23.2553 13.4079 22.8715 13.0099 22.529 12.6704C22.466 12.6034 22.3971 12.5363 22.3263 12.4714C22.0605 12.2137 21.8184 11.9895 21.6157 11.8156C21.5548 11.7657 21.5001 11.7166 21.4493 11.6708C21.4147 11.6397 21.3818 11.6101 21.35 11.583C21.2885 11.5342 21.2352 11.491 21.1904 11.4547C21.162 11.4317 21.1371 11.4115 21.1157 11.3944C21.1 11.3819 21.0823 11.3735 21.0646 11.3672L20.8402 11.3002V9.32226C20.8402 8.99959 20.7181 8.71046 20.5233 8.49881C20.3284 8.28721 20.0568 8.15731 19.7576 8.15731C19.1593 8.15731 18.6751 8.67901 18.6751 9.32226V10.6548L18.5629 10.6213L18.2578 10.5291L17.9803 10.4474C17.9794 10.4474 17.9786 10.447 17.9777 10.4466C17.9763 10.446 17.9747 10.4453 17.9724 10.4453H17.9665L15.8604 9.83768C15.7679 9.81043 15.6892 9.91729 15.7364 10.0074L16.073 10.6695C16.0921 10.7204 16.1163 10.7713 16.1412 10.8235C16.1573 10.8574 16.1737 10.8918 16.1891 10.9272C16.2442 11.0445 16.2993 11.1681 16.3525 11.2918C16.3997 11.4007 16.447 11.5076 16.5021 11.6249C16.5252 11.6801 16.5489 11.7359 16.5728 11.7925C16.6608 12.0005 16.7533 12.2191 16.8445 12.4546C16.9233 12.6537 17.002 12.8527 17.0709 13.0601C17.2599 13.5818 17.439 14.1392 17.5945 14.7112C17.6332 14.8392 17.6641 14.9631 17.6955 15.0887C17.7088 15.1419 17.7221 15.1954 17.7362 15.2497L17.7578 15.3502C17.8208 15.6163 17.876 15.8803 17.9153 16.1464C17.9468 16.3287 17.9763 16.5026 17.9921 16.6786C18.0157 16.8776 18.0393 17.0767 18.0472 17.2757C18.0629 17.458 18.0708 17.6487 18.0708 17.831C18.0708 18.2961 18.0314 18.7445 17.9389 19.1677C17.9331 19.1904 17.9273 19.2134 17.9215 19.2367C17.8956 19.3397 17.8687 19.4464 17.8366 19.5491C17.8075 19.6589 17.7698 19.7688 17.7307 19.8829C17.7169 19.9233 17.7028 19.9642 17.6889 20.0058C17.6863 20.0132 17.6838 20.0206 17.6812 20.0281C17.6522 20.1111 17.6227 20.1955 17.5866 20.2782C17.3917 20.7769 17.1496 21.2734 16.8997 21.7386C16.5336 22.4279 16.1655 23.0334 15.9076 23.4231C15.8919 23.4483 15.8765 23.4723 15.8617 23.4953C15.8432 23.5241 15.8256 23.5514 15.8093 23.5782C15.7286 23.6997 15.8112 23.8715 15.9509 23.8715H18.6751V26.1616H15.9194C15.1794 26.1616 14.4944 25.7153 14.1637 25.0008C13.9925 24.6425 13.9256 24.2486 13.965 23.8631C13.9748 23.7479 13.8941 23.6389 13.7839 23.6389H8.21753C8.12305 23.6389 8.0463 23.7206 8.0463 23.8212V23.9427C8.0463 27.7225 10.9141 30.7857 14.4531 30.7857H24.4382C26.3099 30.7857 27.3727 28.9701 28.4174 27.1856C28.7086 26.6881 28.9983 26.1931 29.3038 25.7404C29.853 24.9275 31.1737 24.2821 31.5595 24.1061C31.6225 24.0768 31.6658 24.0098 31.6658 23.9343Z" fill="white"/>
</g>
<path d="M62.9205 32.1146C60.8085 32.1146 58.8672 31.624 57.0965 30.6426C55.3472 29.6613 53.9498 28.296 52.9045 26.5466C51.8805 24.776 51.3685 22.792 51.3685 20.5946C51.3685 18.3973 51.8805 16.424 52.9045 14.6746C53.9498 12.9253 55.3472 11.56 57.0965 10.5786C58.8672 9.59729 60.8085 9.10662 62.9205 9.10662C65.0325 9.10662 66.9632 9.59729 68.7125 10.5786C70.4832 11.56 71.8698 12.9253 72.8725 14.6746C73.8965 16.424 74.4085 18.3973 74.4085 20.5946C74.4085 22.792 73.8965 24.776 72.8725 26.5466C71.8485 28.296 70.4618 29.6613 68.7125 30.6426C66.9632 31.624 65.0325 32.1146 62.9205 32.1146ZM62.9205 27.1226C64.7125 27.1226 66.1418 26.5253 67.2085 25.3306C68.2965 24.136 68.8405 22.5573 68.8405 20.5946C68.8405 18.6106 68.2965 17.032 67.2085 15.8586C66.1418 14.664 64.7125 14.0666 62.9205 14.0666C61.1072 14.0666 59.6565 14.6533 58.5685 15.8266C57.5018 17 56.9685 18.5893 56.9685 20.5946C56.9685 22.5786 57.5018 24.168 58.5685 25.3626C59.6565 26.536 61.1072 27.1226 62.9205 27.1226ZM81.9648 16.5626C82.4981 15.7306 83.2341 15.0586 84.1728 14.5466C85.1114 14.0346 86.2101 13.7786 87.4688 13.7786C88.9408 13.7786 90.2741 14.152 91.4688 14.8986C92.6634 15.6453 93.6021 16.712 94.2848 18.0986C94.9888 19.4853 95.3408 21.096 95.3408 22.9306C95.3408 24.7653 94.9888 26.3866 94.2848 27.7946C93.6021 29.1813 92.6634 30.2586 91.4688 31.0266C90.2741 31.7733 88.9408 32.1466 87.4688 32.1466C86.2314 32.1466 85.1328 31.8906 84.1728 31.3786C83.2341 30.8666 82.4981 30.2053 81.9648 29.3946V40.4026H76.4928V14.0346H81.9648V16.5626ZM89.7728 22.9306C89.7728 21.5653 89.3888 20.4986 88.6208 19.7306C87.8741 18.9413 86.9461 18.5466 85.8368 18.5466C84.7488 18.5466 83.8208 18.9413 83.0528 19.7306C82.3061 20.52 81.9328 21.5973 81.9328 22.9626C81.9328 24.328 82.3061 25.4053 83.0528 26.1946C83.8208 26.984 84.7488 27.3786 85.8368 27.3786C86.9248 27.3786 87.8528 26.984 88.6208 26.1946C89.3888 25.384 89.7728 24.296 89.7728 22.9306ZM114.084 22.6746C114.084 23.1866 114.052 23.72 113.988 24.2746H101.604C101.689 25.384 102.041 26.2373 102.66 26.8346C103.3 27.4106 104.078 27.6986 104.996 27.6986C106.361 27.6986 107.31 27.1226 107.844 25.9706H113.668C113.369 27.144 112.825 28.2 112.036 29.1386C111.268 30.0773 110.297 30.8133 109.124 31.3466C107.95 31.88 106.638 32.1466 105.188 32.1466C103.438 32.1466 101.881 31.7733 100.516 31.0266C99.1502 30.28 98.0835 29.2133 97.3155 27.8266C96.5475 26.44 96.1635 24.8186 96.1635 22.9626C96.1635 21.1066 96.5368 19.4853 97.2835 18.0986C98.0515 16.712 99.1182 15.6453 100.484 14.8986C101.849 14.152 103.417 13.7786 105.188 13.7786C106.916 13.7786 108.452 14.1413 109.796 14.8666C111.14 15.592 112.185 16.6266 112.932 17.9706C113.7 19.3146 114.084 20.8826 114.084 22.6746ZM108.484 21.2346C108.484 20.296 108.164 19.5493 107.524 18.9946C106.884 18.44 106.084 18.1626 105.124 18.1626C104.206 18.1626 103.428 18.4293 102.788 18.9626C102.169 19.496 101.785 20.2533 101.636 21.2346H108.484ZM126.89 13.8426C128.981 13.8426 130.645 14.5253 131.882 15.8906C133.141 17.2346 133.77 19.0906 133.77 21.4586V31.8906H128.33V22.1946C128.33 21 128.021 20.072 127.402 19.4106C126.784 18.7493 125.952 18.4186 124.906 18.4186C123.861 18.4186 123.029 18.7493 122.41 19.4106C121.792 20.072 121.482 21 121.482 22.1946V31.8906H116.01V14.0346H121.482V16.4026C122.037 15.6133 122.784 14.9946 123.722 14.5466C124.661 14.0773 125.717 13.8426 126.89 13.8426ZM144.741 32.1146C143.098 32.1146 141.626 31.848 140.325 31.3146C139.023 30.7813 137.978 29.992 137.189 28.9466C136.421 27.9013 136.015 26.6426 135.973 25.1706H141.797C141.882 26.0026 142.17 26.6426 142.661 27.0906C143.151 27.5173 143.791 27.7306 144.581 27.7306C145.391 27.7306 146.031 27.5493 146.501 27.1866C146.97 26.8026 147.205 26.28 147.205 25.6186C147.205 25.064 147.013 24.6053 146.629 24.2426C146.266 23.88 145.807 23.5813 145.253 23.3466C144.719 23.112 143.951 22.8453 142.949 22.5466C141.498 22.0986 140.314 21.6506 139.397 21.2026C138.479 20.7546 137.69 20.0933 137.029 19.2186C136.367 18.344 136.037 17.2026 136.037 15.7946C136.037 13.704 136.794 12.072 138.309 10.8986C139.823 9.70396 141.797 9.10662 144.229 9.10662C146.703 9.10662 148.698 9.70396 150.213 10.8986C151.727 12.072 152.538 13.7146 152.645 15.8266H146.725C146.682 15.1013 146.415 14.536 145.925 14.1306C145.434 13.704 144.805 13.4906 144.037 13.4906C143.375 13.4906 142.842 13.672 142.437 14.0346C142.031 14.376 141.829 14.8773 141.829 15.5386C141.829 16.264 142.17 16.8293 142.853 17.2346C143.535 17.64 144.602 18.0773 146.053 18.5466C147.503 19.0373 148.677 19.5066 149.573 19.9546C150.49 20.4026 151.279 21.0533 151.941 21.9066C152.602 22.76 152.933 23.8586 152.933 25.2026C152.933 26.4826 152.602 27.6453 151.941 28.6906C151.301 29.736 150.362 30.568 149.125 31.1866C147.887 31.8053 146.426 32.1146 144.741 32.1146ZM172.172 22.6746C172.172 23.1866 172.14 23.72 172.076 24.2746H159.692C159.778 25.384 160.13 26.2373 160.748 26.8346C161.388 27.4106 162.167 27.6986 163.084 27.6986C164.45 27.6986 165.399 27.1226 165.932 25.9706H171.756C171.458 27.144 170.914 28.2 170.124 29.1386C169.356 30.0773 168.386 30.8133 167.212 31.3466C166.039 31.88 164.727 32.1466 163.276 32.1466C161.527 32.1466 159.97 31.7733 158.604 31.0266C157.239 30.28 156.172 29.2133 155.404 27.8266C154.636 26.44 154.252 24.8186 154.252 22.9626C154.252 21.1066 154.626 19.4853 155.372 18.0986C156.14 16.712 157.207 15.6453 158.572 14.8986C159.938 14.152 161.506 13.7786 163.276 13.7786C165.004 13.7786 166.54 14.1413 167.884 14.8666C169.228 15.592 170.274 16.6266 171.02 17.9706C171.788 19.3146 172.172 20.8826 172.172 22.6746ZM166.572 21.2346C166.572 20.296 166.252 19.5493 165.612 18.9946C164.972 18.44 164.172 18.1626 163.212 18.1626C162.295 18.1626 161.516 18.4293 160.876 18.9626C160.258 19.496 159.874 20.2533 159.724 21.2346H166.572ZM173.011 22.9306C173.011 21.096 173.352 19.4853 174.035 18.0986C174.739 16.712 175.688 15.6453 176.883 14.8986C178.078 14.152 179.411 13.7786 180.883 13.7786C182.142 13.7786 183.24 14.0346 184.179 14.5466C185.139 15.0586 185.875 15.7306 186.387 16.5626V14.0346H191.859V31.8906H186.387V29.3626C185.854 30.1946 185.107 30.8666 184.147 31.3786C183.208 31.8906 182.11 32.1466 180.851 32.1466C179.4 32.1466 178.078 31.7733 176.883 31.0266C175.688 30.2586 174.739 29.1813 174.035 27.7946C173.352 26.3866 173.011 24.7653 173.011 22.9306ZM186.387 22.9626C186.387 21.5973 186.003 20.52 185.235 19.7306C184.488 18.9413 183.571 18.5466 182.483 18.5466C181.395 18.5466 180.467 18.9413 179.699 19.7306C178.952 20.4986 178.579 21.5653 178.579 22.9306C178.579 24.296 178.952 25.384 179.699 26.1946C180.467 26.984 181.395 27.3786 182.483 27.3786C183.571 27.3786 184.488 26.984 185.235 26.1946C186.003 25.4053 186.387 24.328 186.387 22.9626Z" fill="white"/>
<defs>
<clipPath id="clip0_986_111">
<rect width="38.3157" height="40.7866" fill="white"/>
</clipPath>
</defs>
</svg>
